<svg width="45" height="44" viewBox="0 0 45 44" fill="none" xmlns="http://www.w3.org/2000/svg">
<path fill-rule="evenodd" clip-rule="evenodd" d="M12.0674 21.783L17.6919 21.7964L17.731 22.7976L12.113 22.8025L12.0955 30.1328L25.5116 30.1416L25.532 15.4581L30.8261 15.4587C34.0271 15.6725 34.6433 20.1848 31.4974 21.1643C30.6385 21.4316 27.4355 21.3012 26.2831 21.3036C26.326 21.4003 26.5644 21.754 26.9279 22.2743C27.4892 22.2703 28.0756 22.3021 28.6365 22.292C30.6396 22.2555 31.7435 22.5183 33.2145 21.3478C35.7494 19.3308 34.6304 14.7151 30.893 14.4669L24.5726 14.4492L24.5141 29.1449L13.1038 29.156L13.1321 23.8012L18.7263 23.7973C18.7267 23.2506 18.8121 21.1496 18.6751 20.8054L13.0846 20.8005L13.0866 15.4524C14.4674 15.4007 21.918 15.5432 22.4369 15.4092L22.4369 14.4751L12.1057 14.4638C11.9976 14.8847 12.0823 20.7876 12.0673 21.7824L12.0674 21.783Z" fill="white" stroke="white" stroke-width="0.3713"/>
<path d="M7.22656 7.53809H37.6617L38.0481 37.4389H7.61305L7.22656 7.53809Z" stroke="white" stroke-width="1.3742"/>
<path d="M1 22L22.3738 1L43.7472 22L22.3738 43L1 22V22Z" stroke="white" stroke-width="1.3904"/>
</svg>
