<svg width="87" height="44" viewBox="0 0 87 44" fill="none" xmlns="http://www.w3.org/2000/svg">
<path fill-rule="evenodd" clip-rule="evenodd" d="M12.0674 21.783L17.6919 21.7964L17.731 22.7976L12.113 22.8025L12.0955 30.1328L25.5116 30.1416L25.532 15.4581L30.8261 15.4587C34.0271 15.6725 34.6433 20.1848 31.4974 21.1643C30.6385 21.4316 27.4355 21.3012 26.2831 21.3036C26.326 21.4003 26.5644 21.754 26.9279 22.2743C27.4892 22.2703 28.0756 22.3021 28.6365 22.292C30.6396 22.2555 31.7435 22.5183 33.2145 21.3478C35.7494 19.3308 34.6304 14.7151 30.893 14.4669L24.5726 14.4492L24.5141 29.1449L13.1038 29.156L13.1321 23.8012L18.7263 23.7973C18.7267 23.2506 18.8121 21.1496 18.6751 20.8054L13.0846 20.8005L13.0866 15.4524C14.4674 15.4007 21.918 15.5432 22.4369 15.4092L22.4369 14.4751L12.1057 14.4638C11.9976 14.8847 12.0823 20.7876 12.0673 21.7824L12.0674 21.783Z" fill="white" stroke="white" stroke-width="0.3713"/>
<path d="M7.22656 7.53809H37.6617L38.0481 37.4389H7.61305L7.22656 7.53809Z" stroke="white" stroke-width="1.3742"/>
<path d="M1 22L22.3738 1L43.7472 22L22.3738 43L1 22V22Z" stroke="white" stroke-width="1.3904"/>
<path d="M54.0568 26V17.2727H55.1136V25.0625H59.1705V26H54.0568ZM67.8306 21.6364C67.8306 22.5568 67.6644 23.3523 67.332 24.0227C66.9996 24.6932 66.5437 25.2102 65.9641 25.5739C65.3846 25.9375 64.7227 26.1193 63.9783 26.1193C63.234 26.1193 62.5721 25.9375 61.9925 25.5739C61.413 25.2102 60.957 24.6932 60.6246 24.0227C60.2923 23.3523 60.1261 22.5568 60.1261 21.6364C60.1261 20.7159 60.2923 19.9205 60.6246 19.25C60.957 18.5795 61.413 18.0625 61.9925 17.6989C62.5721 17.3352 63.234 17.1534 63.9783 17.1534C64.7227 17.1534 65.3846 17.3352 65.9641 17.6989C66.5437 18.0625 66.9996 18.5795 67.332 19.25C67.6644 19.9205 67.8306 20.7159 67.8306 21.6364ZM66.8079 21.6364C66.8079 20.8807 66.6815 20.2429 66.4286 19.723C66.1786 19.2031 65.8391 18.8097 65.4102 18.5426C64.984 18.2756 64.5067 18.142 63.9783 18.142C63.4499 18.142 62.9712 18.2756 62.5423 18.5426C62.1161 18.8097 61.7766 19.2031 61.5238 19.723C61.2738 20.2429 61.1488 20.8807 61.1488 21.6364C61.1488 22.392 61.2738 23.0298 61.5238 23.5497C61.7766 24.0696 62.1161 24.4631 62.5423 24.7301C62.9712 24.9972 63.4499 25.1307 63.9783 25.1307C64.5067 25.1307 64.984 24.9972 65.4102 24.7301C65.8391 24.4631 66.1786 24.0696 66.4286 23.5497C66.6815 23.0298 66.8079 22.392 66.8079 21.6364ZM75.5735 20C75.4798 19.7131 75.3562 19.456 75.2028 19.2287C75.0522 18.9986 74.8718 18.8026 74.6616 18.6406C74.4542 18.4787 74.2184 18.3551 73.9542 18.2699C73.69 18.1847 73.4002 18.142 73.0849 18.142C72.5678 18.142 72.0977 18.2756 71.6744 18.5426C71.2511 18.8097 70.9144 19.2031 70.6644 19.723C70.4144 20.2429 70.2894 20.8807 70.2894 21.6364C70.2894 22.392 70.4158 23.0298 70.6687 23.5497C70.9215 24.0696 71.2638 24.4631 71.6957 24.7301C72.1275 24.9972 72.6133 25.1307 73.1531 25.1307C73.6531 25.1307 74.0934 25.0241 74.4741 24.8111C74.8576 24.5952 75.1559 24.2912 75.369 23.8991C75.5849 23.5043 75.6928 23.0398 75.6928 22.5057L76.0167 22.5739H73.3917V21.6364H76.7156V22.5739C76.7156 23.2926 76.5621 23.9176 76.2553 24.4489C75.9513 24.9801 75.5309 25.392 74.994 25.6847C74.4599 25.9744 73.8462 26.1193 73.1531 26.1193C72.3803 26.1193 71.7013 25.9375 71.1161 25.5739C70.5337 25.2102 70.0792 24.6932 69.7525 24.0227C69.4286 23.3523 69.2667 22.5568 69.2667 21.6364C69.2667 20.946 69.359 20.3253 69.5437 19.7741C69.7312 19.2202 69.9954 18.7486 70.3363 18.3594C70.6772 17.9702 71.0806 17.6719 71.5465 17.4645C72.0124 17.2571 72.5252 17.1534 73.0849 17.1534C73.5451 17.1534 73.9741 17.223 74.3718 17.3622C74.7724 17.4986 75.1289 17.6932 75.4414 17.946C75.7567 18.196 76.0195 18.4957 76.2298 18.8452C76.44 19.1918 76.5849 19.5767 76.6644 20H75.5735ZM85.8892 21.6364C85.8892 22.5568 85.723 23.3523 85.3906 24.0227C85.0582 24.6932 84.6023 25.2102 84.0227 25.5739C83.4432 25.9375 82.7813 26.1193 82.0369 26.1193C81.2926 26.1193 80.6307 25.9375 80.0511 25.5739C79.4716 25.2102 79.0156 24.6932 78.6832 24.0227C78.3509 23.3523 78.1847 22.5568 78.1847 21.6364C78.1847 20.7159 78.3509 19.9205 78.6832 19.25C79.0156 18.5795 79.4716 18.0625 80.0511 17.6989C80.6307 17.3352 81.2926 17.1534 82.0369 17.1534C82.7813 17.1534 83.4432 17.3352 84.0227 17.6989C84.6023 18.0625 85.0582 18.5795 85.3906 19.25C85.723 19.9205 85.8892 20.7159 85.8892 21.6364ZM84.8665 21.6364C84.8665 20.8807 84.7401 20.2429 84.4872 19.723C84.2372 19.2031 83.8977 18.8097 83.4688 18.5426C83.0426 18.2756 82.5653 18.142 82.0369 18.142C81.5085 18.142 81.0298 18.2756 80.6009 18.5426C80.1747 18.8097 79.8352 19.2031 79.5824 19.723C79.3324 20.2429 79.2074 20.8807 79.2074 21.6364C79.2074 22.392 79.3324 23.0298 79.5824 23.5497C79.8352 24.0696 80.1747 24.4631 80.6009 24.7301C81.0298 24.9972 81.5085 25.1307 82.0369 25.1307C82.5653 25.1307 83.0426 24.9972 83.4688 24.7301C83.8977 24.4631 84.2372 24.0696 84.4872 23.5497C84.7401 23.0298 84.8665 22.392 84.8665 21.6364Z" fill="white"/>
</svg>
